%FSTAX23Y23*%
%MOIN*%
%SFA1B1*%

%IPPOS*%
%ADD59C,0.047370*%
%ADD60R,0.047370X0.047370*%
%ADD61C,0.067060*%
%ADD62R,0.067060X0.067060*%
%ADD63C,0.027690*%
%LNsrt-wren-25-22-v101-1*%
%LPD*%
G54D59*
X00774Y00187D03*
X00676D03*
X00725D03*
X00577D03*
X00626D03*
X00479D03*
X00528D03*
G54D60*
X0043Y00187D03*
G54D61*
X00062Y0075D03*
Y0065D03*
Y0055D03*
Y0045D03*
Y0035D03*
G54D62*
X00062Y0025D03*
G54D63*
X00496Y00578D03*
X00556D03*
X00415Y00496D03*
X00144Y00592D03*
X00593Y00547D03*
X00945Y00264D03*
X01175Y00439D03*
X00415Y00389D03*
Y00319D03*
Y00454D03*
Y00424D03*
X0025Y00289D03*
X00205Y00644D03*
X00245Y00744D03*
X0028Y00764D03*
Y00824D03*
Y00884D03*
X0016Y00744D03*
X0052Y00524D03*
X0073Y00559D03*
X00665Y00424D03*
X0082Y00539D03*
X01175Y00264D03*
X00995Y00524D03*
X008Y00364D03*
X00785Y00644D03*
X00165Y00334D03*
Y00539D03*
X0035Y00269D03*
X0095Y00605D03*
X00654Y00477D03*
X00578Y00264D03*
X00925Y00824D03*
X00948Y00882D03*
X00921Y00942D03*
X00875Y00824D03*
X00111Y00305D03*
X00843Y00187D03*
X01102Y00803D03*
X0104Y00393D03*
X00444Y00596D03*
M02*