%FSTAX23Y23*%
%MOIN*%
%SFA1B1*%

%IPPOS*%
%ADD45C,0.005000*%
%ADD64C,0.006670*%
%LNsrt-wren-25-22-v101-1*%
%LPD*%
G54D45*
X00754Y00167D02*
Y00207D01*
X00794*
Y00167*
X00754*
X00656D02*
Y00207D01*
X00696*
Y00167*
X00656*
X00705D02*
Y00207D01*
X00745*
Y00167*
X00705*
X00557D02*
Y00207D01*
X00597*
Y00167*
X00557*
X00606D02*
Y00207D01*
X00646*
Y00167*
X00606*
X0041D02*
Y00207D01*
X0045*
Y00167*
X0041*
X00459D02*
Y00207D01*
X00499*
Y00167*
X00459*
X00508D02*
Y00207D01*
X00548*
Y00167*
X00508*
X00496Y00558D02*
X00476Y00598D01*
X00516*
X00496Y00558*
X00556D02*
X00536Y00598D01*
X00576*
X00556Y00558*
X00415Y00476D02*
X00395Y00516D01*
X00435*
X00415Y00476*
X00144Y00572D02*
X00124Y00612D01*
X00164*
X00144Y00572*
X00593Y00527D02*
X00573Y00567D01*
X00613*
X00593Y00527*
X00945Y00244D02*
X00925Y00284D01*
X00965*
X00945Y00244*
X01175Y00419D02*
X01155Y00459D01*
X01195*
X01175Y00419*
X00415Y00369D02*
X00395Y00409D01*
X00435*
X00415Y00369*
Y00299D02*
X00395Y00339D01*
X00435*
X00415Y00299*
Y00434D02*
X00395Y00474D01*
X00435*
X00415Y00434*
Y00404D02*
X00395Y00444D01*
X00435*
X00415Y00404*
X0025Y00269D02*
X0023Y00309D01*
X0027*
X0025Y00269*
X00205Y00624D02*
X00185Y00664D01*
X00225*
X00205Y00624*
X00245Y00724D02*
X00225Y00764D01*
X00265*
X00245Y00724*
X0028Y00744D02*
X0026Y00784D01*
X003*
X0028Y00744*
Y00804D02*
X0026Y00844D01*
X003*
X0028Y00804*
Y00864D02*
X0026Y00904D01*
X003*
X0028Y00864*
X0016Y00724D02*
X0014Y00764D01*
X0018*
X0016Y00724*
X0052Y00504D02*
X005Y00544D01*
X0054*
X0052Y00504*
X0073Y00539D02*
X0071Y00579D01*
X0075*
X0073Y00539*
X00665Y00404D02*
X00645Y00444D01*
X00685*
X00665Y00404*
X0082Y00519D02*
X008Y00559D01*
X0084*
X0082Y00519*
X01175Y00244D02*
X01155Y00284D01*
X01195*
X01175Y00244*
X00995Y00504D02*
X00975Y00544D01*
X01015*
X00995Y00504*
X008Y00344D02*
X0078Y00384D01*
X0082*
X008Y00344*
X00785Y00624D02*
X00765Y00664D01*
X00805*
X00785Y00624*
X00165Y00314D02*
X00145Y00354D01*
X00185*
X00165Y00314*
Y00519D02*
X00145Y00559D01*
X00185*
X00165Y00519*
X0035Y00249D02*
X0033Y00289D01*
X0037*
X0035Y00249*
X0095Y00585D02*
X0093Y00625D01*
X0097*
X0095Y00585*
X00654Y00457D02*
X00634Y00497D01*
X00674*
X00654Y00457*
X00578Y00244D02*
X00558Y00284D01*
X00598*
X00578Y00244*
X00925Y00804D02*
X00905Y00844D01*
X00945*
X00925Y00804*
X00948Y00862D02*
X00928Y00902D01*
X00968*
X00948Y00862*
X00921Y00922D02*
X00901Y00962D01*
X00941*
X00921Y00922*
X00875Y00804D02*
X00855Y00844D01*
X00895*
X00875Y00804*
X00111Y00285D02*
X00091Y00325D01*
X00131*
X00111Y00285*
X00843Y00167D02*
X00823Y00207D01*
X00863*
X00843Y00167*
X01102Y00783D02*
X01082Y00823D01*
X01122*
X01102Y00783*
X0104Y00373D02*
X0102Y00413D01*
X0106*
X0104Y00373*
X00444Y00576D02*
X00424Y00616D01*
X00464*
X00444Y00576*
G54D64*
X00082Y0075D02*
X00079Y0076D01*
X00073Y00767*
X00064Y0077*
X00054Y00769*
X00047Y00764*
X00042Y00755*
Y00746*
X00047Y00737*
X00054Y00732*
X00064Y00731*
X00073Y00734*
X00079Y00741*
X00082Y0075*
Y0065D02*
X00079Y0066D01*
X00073Y00667*
X00064Y0067*
X00054Y00669*
X00047Y00664*
X00042Y00655*
Y00646*
X00047Y00637*
X00054Y00632*
X00064Y00631*
X00073Y00634*
X00079Y00641*
X00082Y0065*
Y0055D02*
X00079Y0056D01*
X00073Y00567*
X00064Y0057*
X00054Y00569*
X00047Y00564*
X00042Y00555*
Y00546*
X00047Y00537*
X00054Y00532*
X00064Y00531*
X00073Y00534*
X00079Y00541*
X00082Y0055*
Y0045D02*
X00079Y0046D01*
X00073Y00467*
X00064Y0047*
X00054Y00469*
X00047Y00464*
X00042Y00455*
Y00446*
X00047Y00437*
X00054Y00432*
X00064Y00431*
X00073Y00434*
X00079Y00441*
X00082Y0045*
Y0035D02*
X00079Y0036D01*
X00073Y00367*
X00064Y0037*
X00054Y00369*
X00047Y00364*
X00042Y00355*
Y00346*
X00047Y00337*
X00054Y00332*
X00064Y00331*
X00073Y00334*
X00079Y00341*
X00082Y0035*
Y0025D02*
X00079Y0026D01*
X00073Y00267*
X00064Y0027*
X00054Y00269*
X00047Y00264*
X00042Y00255*
Y00246*
X00047Y00237*
X00054Y00232*
X00064Y00231*
X00073Y00234*
X00079Y00241*
X00082Y0025*
M02*