%FSTAX23Y23*%
%MOIN*%
%SFA1B1*%

%IPPOS*%
%AMD52*
4,1,8,0.015600,-0.029800,0.015600,0.029800,0.008700,0.036700,-0.008700,0.036700,-0.015600,0.029800,-0.015600,-0.029800,-0.008700,-0.036700,0.008700,-0.036700,0.015600,-0.029800,0.0*
1,1,0.013800,0.008700,-0.029800*
1,1,0.013800,0.008700,0.029800*
1,1,0.013800,-0.008700,0.029800*
1,1,0.013800,-0.008700,-0.029800*
%
%AMD56*
4,1,8,-0.016000,0.018500,-0.016000,-0.018500,-0.009000,-0.025500,0.009000,-0.025500,0.016000,-0.018500,0.016000,0.018500,0.009000,0.025500,-0.009000,0.025500,-0.016000,0.018500,0.0*
1,1,0.014000,-0.009000,0.018500*
1,1,0.014000,-0.009000,-0.018500*
1,1,0.014000,0.009000,-0.018500*
1,1,0.014000,0.009000,0.018500*
%
%ADD12R,0.003940X0.003940*%
%ADD47R,0.049340X0.031620*%
%ADD48R,0.047370X0.039500*%
%ADD49O,0.086740X0.047370*%
%ADD50C,0.068000*%
%ADD51R,0.034770X0.067060*%
G04~CAMADD=52~8~0.0~0.0~733.5~312.3~69.0~0.0~15~0.0~0.0~0.0~0.0~0~0.0~0.0~0.0~0.0~0~0.0~0.0~0.0~270.0~313.0~734.0*
%ADD52D52*%
%ADD53R,0.039500X0.047370*%
%ADD54O,0.047370X0.086740*%
%ADD55R,0.086740X0.047370*%
G04~CAMADD=56~8~0.0~0.0~509.1~320.2~70.0~0.0~15~0.0~0.0~0.0~0.0~0~0.0~0.0~0.0~0.0~0~0.0~0.0~0.0~90.0~322.0~509.0*
%ADD56D56*%
%ADD57R,0.031620X0.049340*%
%ADD58R,0.031620X0.065090*%
%ADD59C,0.047370*%
%ADD60R,0.047370X0.047370*%
%ADD61C,0.067060*%
%ADD62R,0.067060X0.067060*%
%ADD63C,0.027690*%
%LNsrt-wren-25-22-v101-1*%
%LPD*%
G36*
X01057Y00439D02*
X01082D01*
Y00311*
X00998*
Y00439*
X01023*
Y00486*
X01057*
Y00439*
G37*
G54D12*
X00811Y00707D03*
G54D47*
X01019Y00605D03*
X01129D03*
G54D48*
X00845Y0037D03*
X009D03*
X00765Y00499D03*
X0071D03*
X00995Y00804D03*
X0105D03*
Y00724D03*
X00995D03*
X00465Y00389D03*
X0052D03*
X00465Y00319D03*
X0052D03*
X00465Y00484D03*
X0052D03*
X01032Y00259D03*
X01087D03*
G54D49*
X00811Y00707D03*
Y00766D03*
Y00825D03*
Y00884D03*
Y00943D03*
X00359Y00707D03*
Y00766D03*
Y00825D03*
Y00884D03*
G54D50*
X0104Y00382D03*
G54D51*
X01099Y00459D03*
X00981D03*
Y00329D03*
X01099D03*
G54D52*
X0035Y00542D03*
X003D03*
X0025D03*
X002D03*
Y00335D03*
X0025D03*
X003D03*
X0035D03*
G54D53*
X00245Y00699D03*
Y00644D03*
X01175Y00369D03*
Y00314D03*
X0016Y00699D03*
Y00644D03*
X0077Y00419D03*
Y00364D03*
G54D54*
X00733Y00638D03*
X00674D03*
X00615D03*
X00556D03*
X00496D03*
X00437D03*
G54D55*
X00359Y00943D03*
G54D56*
X00867Y00563D03*
X00904Y00478D03*
X00831D03*
G54D57*
X00884Y00077D03*
Y00187D03*
G54D58*
X00668Y00324D03*
X0063Y00417D03*
X00705D03*
G54D59*
X00774Y00187D03*
X00676D03*
X00725D03*
X00577D03*
X00626D03*
X00479D03*
X00528D03*
G54D60*
X0043Y00187D03*
G54D61*
X00062Y0075D03*
Y0065D03*
Y0055D03*
Y0045D03*
Y0035D03*
G54D62*
X00062Y0025D03*
G54D63*
X00496Y00578D03*
X00556D03*
X00415Y00496D03*
X00144Y00592D03*
X00593Y00547D03*
X00945Y00264D03*
X01175Y00439D03*
X00415Y00389D03*
Y00319D03*
Y00454D03*
Y00424D03*
X0025Y00289D03*
X00205Y00644D03*
X00245Y00744D03*
X0028Y00764D03*
Y00824D03*
Y00884D03*
X0016Y00744D03*
X0052Y00524D03*
X0073Y00559D03*
X00665Y00424D03*
X0082Y00539D03*
X01175Y00264D03*
X00995Y00524D03*
X008Y00364D03*
X00785Y00644D03*
X00165Y00334D03*
Y00539D03*
X0035Y00269D03*
X0095Y00605D03*
X00654Y00477D03*
X00578Y00264D03*
X00925Y00824D03*
X00948Y00882D03*
X00921Y00942D03*
X00875Y00824D03*
X00111Y00305D03*
X00843Y00187D03*
X01102Y00803D03*
X0104Y00393D03*
X00444Y00596D03*
M02*