%FSLAX25Y25*%
%MOIN*%
G70*
G01*
G75*
G04 Layer_Physical_Order=1*
G04 Layer_Color=255*
%ADD10R,0.04134X0.02362*%
%ADD11R,0.03937X0.03150*%
%ADD12R,0.00394X0.00394*%
%ADD13O,0.07874X0.03937*%
%ADD14C,0.06000*%
%ADD15R,0.02677X0.05906*%
G04:AMPARAMS|DCode=16|XSize=65.35mil|YSize=23.23mil|CornerRadius=2.9mil|HoleSize=0mil|Usage=FLASHONLY|Rotation=270.000|XOffset=0mil|YOffset=0mil|HoleType=Round|Shape=RoundedRectangle|*
%AMROUNDEDRECTD16*
21,1,0.06535,0.01742,0,0,270.0*
21,1,0.05955,0.02323,0,0,270.0*
1,1,0.00581,-0.00871,-0.02977*
1,1,0.00581,-0.00871,0.02977*
1,1,0.00581,0.00871,0.02977*
1,1,0.00581,0.00871,-0.02977*
%
%ADD16ROUNDEDRECTD16*%
%ADD17R,0.03150X0.03937*%
%ADD18O,0.03937X0.07874*%
%ADD19R,0.07874X0.03937*%
G04:AMPARAMS|DCode=20|XSize=42.91mil|YSize=24.02mil|CornerRadius=3mil|HoleSize=0mil|Usage=FLASHONLY|Rotation=90.000|XOffset=0mil|YOffset=0mil|HoleType=Round|Shape=RoundedRectangle|*
%AMROUNDEDRECTD20*
21,1,0.04291,0.01801,0,0,90.0*
21,1,0.03691,0.02402,0,0,90.0*
1,1,0.00600,0.00901,0.01846*
1,1,0.00600,0.00901,-0.01846*
1,1,0.00600,-0.00901,-0.01846*
1,1,0.00600,-0.00901,0.01846*
%
%ADD20ROUNDEDRECTD20*%
%ADD21R,0.02362X0.04134*%
%ADD22R,0.02362X0.05709*%
%ADD23C,0.01000*%
%ADD24C,0.01181*%
%ADD25R,0.02000X0.02850*%
%ADD26R,0.01575X0.03347*%
%ADD27R,0.03937X0.10925*%
%ADD28R,0.08858X0.22736*%
%ADD29R,0.05610X0.12492*%
%ADD30R,0.02661X0.06709*%
%ADD31R,0.04035X0.08366*%
%ADD32R,0.04921X0.05512*%
%ADD33R,0.07480X0.04331*%
%ADD34R,0.04169X0.07087*%
%ADD35R,0.07501X0.26028*%
%ADD36C,0.03937*%
%ADD37R,0.03937X0.03937*%
%ADD38C,0.05906*%
%ADD39R,0.05906X0.05906*%
%ADD40C,0.01969*%
G36*
X86799Y61925D02*
X84299Y64425D01*
X89299D01*
X86799Y61925D01*
D02*
G37*
G36*
X121026Y1618D02*
X1313D01*
Y97113D01*
X39628D01*
Y81118D01*
Y74618D01*
X31628D01*
Y72242D01*
X31541Y72130D01*
X31264Y71460D01*
X31169Y70740D01*
X31264Y70021D01*
X31541Y69350D01*
X31628Y69238D01*
Y68405D01*
X31201D01*
Y68405D01*
X14862D01*
X14370Y68898D01*
X14343Y68871D01*
X6201D01*
X5224Y68742D01*
X4315Y68365D01*
X3533Y67766D01*
X2934Y66985D01*
X2557Y66075D01*
X2428Y65098D01*
X2557Y64122D01*
X2934Y63212D01*
X3533Y62431D01*
X4315Y61831D01*
X5224Y61454D01*
X6201Y61326D01*
Y48871D01*
X5224Y48742D01*
X4315Y48365D01*
X3533Y47766D01*
X2934Y46985D01*
X2557Y46075D01*
X2428Y45098D01*
X2557Y44122D01*
X2934Y43212D01*
X3533Y42431D01*
X4315Y41831D01*
X5224Y41455D01*
X6201Y41326D01*
Y38871D01*
X5224Y38742D01*
X4315Y38365D01*
X3533Y37766D01*
X2934Y36985D01*
X2557Y36075D01*
X2428Y35098D01*
X2557Y34122D01*
X2934Y33212D01*
X3533Y32431D01*
X4315Y31831D01*
X5224Y31455D01*
X6201Y31326D01*
Y28839D01*
X2461D01*
Y21358D01*
X9941D01*
Y23694D01*
X12697D01*
X13235Y23800D01*
X13690Y24105D01*
X15186Y25601D01*
X15491Y26057D01*
X15598Y26594D01*
Y28740D01*
X23286D01*
X23386Y28234D01*
X23778Y27648D01*
X24364Y27256D01*
X25055Y27119D01*
X25746Y27256D01*
X26332Y27648D01*
X26724Y28234D01*
X26825Y28740D01*
X28743D01*
Y23193D01*
X28842Y22691D01*
X29127Y22265D01*
X38639Y12753D01*
X39065Y12468D01*
X39567Y12369D01*
X46752D01*
X47254Y12468D01*
X47680Y12753D01*
X48861Y13934D01*
X49146Y14360D01*
X49246Y14862D01*
Y16360D01*
X49323Y16392D01*
X49899Y16834D01*
X50144Y17153D01*
X50644D01*
X50889Y16834D01*
X51464Y16392D01*
X51542Y16360D01*
Y10433D01*
X51642Y9931D01*
X51926Y9505D01*
X54588Y6843D01*
X54843Y6673D01*
X55013Y6559D01*
X55516Y6459D01*
X86468D01*
Y4917D01*
X90405D01*
Y10626D01*
X86468D01*
Y9084D01*
X56059D01*
X54167Y10977D01*
Y16360D01*
X54244Y16392D01*
X54820Y16834D01*
X55262Y17409D01*
X55539Y18080D01*
X55634Y18799D01*
X55539Y19519D01*
X55262Y20189D01*
X54820Y20765D01*
X54244Y21206D01*
X53574Y21484D01*
X52854Y21579D01*
X52135Y21484D01*
X51464Y21206D01*
X50889Y20765D01*
X50644Y20445D01*
X50144D01*
X49899Y20765D01*
X49323Y21206D01*
X48652Y21484D01*
X47933Y21579D01*
X47214Y21484D01*
X46543Y21206D01*
X46216Y20956D01*
X45768Y21177D01*
Y21555D01*
X42112D01*
X40368Y23300D01*
Y30057D01*
X40809Y30293D01*
X40864Y30256D01*
X41555Y30119D01*
X42246Y30256D01*
X42779Y30613D01*
X43799D01*
Y29563D01*
X52930D01*
X56080Y26413D01*
X56205Y25785D01*
X56597Y25199D01*
X57183Y24807D01*
X57874Y24670D01*
X58565Y24807D01*
X58884Y25020D01*
X93469D01*
X93864Y24756D01*
X94555Y24619D01*
X95246Y24756D01*
X95832Y25148D01*
X96224Y25734D01*
X96362Y26425D01*
X96224Y27117D01*
X95832Y27703D01*
X95246Y28094D01*
X94555Y28232D01*
X93864Y28094D01*
X93469Y27830D01*
X59037D01*
X58565Y28145D01*
X58262Y28206D01*
X54811Y31656D01*
Y34287D01*
Y36563D01*
Y38766D01*
X63294Y47249D01*
X63772Y47103D01*
X63784Y47045D01*
X64175Y46459D01*
X64762Y46067D01*
X65256Y45969D01*
Y44587D01*
X68594D01*
Y44579D01*
Y38067D01*
X72531D01*
X72898Y38433D01*
X76232D01*
X76279Y38386D01*
X77063Y39169D01*
X79417D01*
Y39394D01*
Y44681D01*
X79311Y44787D01*
Y47563D01*
Y52287D01*
D01*
Y52287D01*
X79636Y52613D01*
X80831D01*
X81364Y52256D01*
X82055Y52119D01*
X82746Y52256D01*
X83332Y52648D01*
X83724Y53234D01*
X83862Y53925D01*
X83724Y54616D01*
X83332Y55203D01*
X82746Y55594D01*
X82055Y55732D01*
X81364Y55594D01*
X80831Y55238D01*
X77563D01*
X77061Y55138D01*
X76890Y55024D01*
X76635Y54853D01*
X76102Y54321D01*
X71325D01*
Y60074D01*
X70278Y61122D01*
X70278Y61122D01*
X70278Y61122D01*
X70098Y61163D01*
X70098D01*
X70193Y61882D01*
Y65819D01*
X70098Y66538D01*
X70151Y66618D01*
X75168D01*
X75295Y64228D01*
Y63102D01*
X75436Y62962D01*
Y59765D01*
X83694D01*
X84874Y58585D01*
X84790Y58160D01*
Y54470D01*
X84874Y54045D01*
X85115Y53685D01*
X85474Y53445D01*
X85899Y53361D01*
X87700D01*
X88124Y53445D01*
X88484Y53685D01*
X88724Y54045D01*
X88809Y54470D01*
Y58160D01*
X88724Y58585D01*
X88484Y58945D01*
X88204Y59131D01*
Y62195D01*
X89030Y63020D01*
X100689D01*
Y62500D01*
X101181Y62008D01*
X104331D01*
X105032Y62760D01*
Y65915D01*
X106049Y66932D01*
X109055Y69938D01*
Y82776D01*
X102311D01*
Y82787D01*
X96799D01*
Y82776D01*
X95627D01*
Y86655D01*
X96159Y87010D01*
X96551Y87596D01*
X96688Y88287D01*
X96551Y88979D01*
X96159Y89565D01*
X95627Y89920D01*
Y97113D01*
X121026D01*
Y1618D01*
D02*
G37*
G36*
X37661Y36992D02*
X37661D01*
X37742Y36911D01*
Y22756D01*
X37842Y22254D01*
X38127Y21828D01*
X40256Y19699D01*
Y19094D01*
X40111Y18949D01*
Y15647D01*
X39649Y15456D01*
X31368Y23737D01*
Y28612D01*
X32025Y29269D01*
Y34646D01*
Y36992D01*
X37661D01*
D01*
D02*
G37*
G36*
X46973Y66242D02*
X46917Y65819D01*
Y61882D01*
X47012Y61163D01*
X47290Y60492D01*
X47731Y59916D01*
X48264Y59507D01*
Y58909D01*
X48000Y58514D01*
X47863Y57823D01*
X48000Y57132D01*
X48303Y56679D01*
X48067Y56238D01*
X45620D01*
X37230Y64628D01*
Y66618D01*
X46643D01*
X46973Y66242D01*
D02*
G37*
G36*
X99835Y74146D02*
X97335Y76646D01*
X99835Y79146D01*
Y74146D01*
D02*
G37*
%LPC*%
G36*
X62697Y21579D02*
X61977Y21484D01*
X61307Y21206D01*
X60731Y20765D01*
X60290Y20189D01*
X60012Y19519D01*
X59917Y18799D01*
X60012Y18080D01*
X60290Y17409D01*
X60731Y16834D01*
X61307Y16392D01*
X61977Y16114D01*
X62697Y16019D01*
X63416Y16114D01*
X64087Y16392D01*
X64662Y16834D01*
X65104Y17409D01*
X65382Y18080D01*
X65477Y18799D01*
X65382Y19519D01*
X65104Y20189D01*
X64662Y20765D01*
X64087Y21206D01*
X63416Y21484D01*
X62697Y21579D01*
D02*
G37*
G36*
X72539D02*
X71820Y21484D01*
X71149Y21206D01*
X70574Y20765D01*
X70132Y20189D01*
X69854Y19519D01*
X69760Y18799D01*
X69854Y18080D01*
X70132Y17409D01*
X70574Y16834D01*
X71149Y16392D01*
X71820Y16114D01*
X72539Y16019D01*
X73259Y16114D01*
X73929Y16392D01*
X74505Y16834D01*
X74947Y17409D01*
X75224Y18080D01*
X75319Y18799D01*
X75224Y19519D01*
X74947Y20189D01*
X74505Y20765D01*
X73929Y21206D01*
X73259Y21484D01*
X72539Y21579D01*
D02*
G37*
G36*
X9746Y94839D02*
X8382Y94659D01*
X7111Y94133D01*
X6020Y93295D01*
X5182Y92204D01*
X4656Y90933D01*
X4476Y89569D01*
X4656Y88205D01*
X5182Y86934D01*
X6020Y85843D01*
X7111Y85005D01*
X8382Y84479D01*
X9746Y84299D01*
X11110Y84479D01*
X12381Y85005D01*
X13472Y85843D01*
X14309Y86934D01*
X14836Y88205D01*
X15015Y89569D01*
X14836Y90933D01*
X14309Y92204D01*
X13472Y93295D01*
X12381Y94133D01*
X11110Y94659D01*
X9746Y94839D01*
D02*
G37*
G36*
X9647Y15901D02*
X8284Y15722D01*
X7013Y15195D01*
X5921Y14358D01*
X5084Y13267D01*
X4558Y11996D01*
X4378Y10632D01*
X4558Y9268D01*
X5084Y7997D01*
X5921Y6906D01*
X7013Y6069D01*
X8284Y5542D01*
X9647Y5362D01*
X11011Y5542D01*
X12282Y6069D01*
X13374Y6906D01*
X14211Y7997D01*
X14737Y9268D01*
X14917Y10632D01*
X14737Y11996D01*
X14211Y13267D01*
X13374Y14358D01*
X12282Y15195D01*
X11011Y15722D01*
X9647Y15901D01*
D02*
G37*
G36*
X112108D02*
X110744Y15722D01*
X109473Y15195D01*
X108382Y14358D01*
X107545Y13267D01*
X107018Y11996D01*
X106839Y10632D01*
X107018Y9268D01*
X107545Y7997D01*
X108382Y6906D01*
X109473Y6069D01*
X110744Y5542D01*
X112108Y5362D01*
X113472Y5542D01*
X114743Y6069D01*
X115834Y6906D01*
X116672Y7997D01*
X117198Y9268D01*
X117378Y10632D01*
X117198Y11996D01*
X116672Y13267D01*
X115834Y14358D01*
X114743Y15195D01*
X113472Y15722D01*
X112108Y15901D01*
D02*
G37*
G36*
X115842Y62547D02*
X110134D01*
Y60039D01*
X105071D01*
X105032Y60079D01*
X104331Y58957D01*
Y57948D01*
X94533D01*
X93995Y57841D01*
X93539Y57537D01*
X89408Y53406D01*
X89104Y52950D01*
X88997Y52412D01*
Y50706D01*
X88717Y50519D01*
X88639Y50403D01*
X84960D01*
X84882Y50519D01*
X84522Y50760D01*
X84097Y50844D01*
X82296D01*
X81872Y50760D01*
X81512Y50519D01*
X81272Y50160D01*
X81187Y49735D01*
Y46044D01*
X81272Y45620D01*
X81512Y45260D01*
X81872Y45020D01*
X81872Y45020D01*
X81799Y44932D01*
D01*
X81799Y44932D01*
X81799Y44932D01*
Y39382D01*
Y34657D01*
X81799Y34657D01*
X81799D01*
X81863Y34504D01*
X81585Y34088D01*
X68791D01*
Y36098D01*
X64854D01*
Y28815D01*
X68791D01*
Y31463D01*
X82406D01*
X82908Y31563D01*
X83334Y31847D01*
X85483Y33997D01*
X85768Y34423D01*
X85814Y34657D01*
X92432D01*
X92886Y34203D01*
Y33369D01*
X92993Y32831D01*
X93298Y32376D01*
X93990Y31684D01*
X94446Y31379D01*
X94983Y31272D01*
X96024D01*
Y29189D01*
X96745D01*
Y27847D01*
X96745Y27847D01*
X96745D01*
X96852Y27309D01*
X97156Y26853D01*
X99019Y24991D01*
X99474Y24686D01*
X100012Y24579D01*
X100504D01*
Y23622D01*
X101395D01*
X101587Y23160D01*
X98627Y20200D01*
X90405D01*
Y21650D01*
X86468D01*
Y20204D01*
X85437D01*
X85042Y20468D01*
X84350Y20606D01*
X83659Y20468D01*
X83073Y20076D01*
X82682Y19490D01*
X82544Y18799D01*
X82682Y18108D01*
X83073Y17522D01*
X83659Y17130D01*
X84350Y16993D01*
X85042Y17130D01*
X85437Y17394D01*
X86468D01*
Y15941D01*
X90405D01*
Y17390D01*
X99209D01*
X99746Y17497D01*
X100202Y17802D01*
X100202Y17802D01*
X100202Y17802D01*
X104143Y21743D01*
X104448Y22199D01*
X104555Y22736D01*
X104555Y22736D01*
X104555Y22736D01*
Y22736D01*
Y23622D01*
X106016D01*
Y28346D01*
X101210D01*
X100974Y28787D01*
X101037Y28882D01*
X101098Y29189D01*
Y30748D01*
X107835D01*
Y29189D01*
X114673D01*
X115193Y28669D01*
X116150D01*
Y27511D01*
X115886Y27117D01*
X115749Y26425D01*
X115886Y25734D01*
X116278Y25148D01*
X116864Y24756D01*
X117555Y24619D01*
X118246Y24756D01*
X118832Y25148D01*
X119224Y25734D01*
X119361Y26425D01*
X119224Y27117D01*
X118960Y27511D01*
Y28669D01*
X119917D01*
Y34181D01*
X115193D01*
D01*
X115193D01*
X114980Y34394D01*
Y39894D01*
X114028Y40846D01*
X112598D01*
Y51182D01*
X112579Y51201D01*
X112579D01*
X113116Y51308D01*
X113572Y51613D01*
X113982Y52022D01*
X114286Y52478D01*
X114393Y53016D01*
Y58610D01*
X115842D01*
Y62547D01*
D02*
G37*
G36*
X112055Y94695D02*
X110691Y94515D01*
X109420Y93989D01*
X108329Y93151D01*
X107492Y92060D01*
X106965Y90789D01*
X106786Y89425D01*
X106965Y88061D01*
X107492Y86791D01*
X108329Y85699D01*
X109420Y84862D01*
X110691Y84335D01*
X112055Y84156D01*
X113419Y84335D01*
X114690Y84862D01*
X115781Y85699D01*
X116619Y86791D01*
X117145Y88061D01*
X117325Y89425D01*
X117145Y90789D01*
X116619Y92060D01*
X115781Y93151D01*
X114690Y93989D01*
X113419Y94515D01*
X112055Y94695D01*
D02*
G37*
G36*
X6201Y78871D02*
X5224Y78742D01*
X4315Y78365D01*
X3533Y77766D01*
X2934Y76985D01*
X2557Y76075D01*
X2428Y75098D01*
X2557Y74122D01*
X2934Y73212D01*
X3533Y72431D01*
X4315Y71831D01*
X5224Y71455D01*
X6201Y71326D01*
X7177Y71455D01*
X8087Y71831D01*
X8868Y72431D01*
X9468Y73212D01*
X9845Y74122D01*
X9973Y75098D01*
X9845Y76075D01*
X9468Y76985D01*
X8868Y77766D01*
X8087Y78365D01*
X7177Y78742D01*
X6201Y78871D01*
D02*
G37*
G36*
X64039Y44929D02*
X62563D01*
Y43453D01*
X64039Y44929D01*
D02*
G37*
%LPD*%
G36*
X105394Y43559D02*
X107854D01*
Y31551D01*
X100256D01*
Y43559D01*
X102717D01*
Y48283D01*
X105394D01*
Y43559D01*
D02*
G37*
G36*
X107454Y44362D02*
X106196D01*
Y48283D01*
X106135Y48591D01*
X105961Y48851D01*
X105701Y49025D01*
X105394Y49086D01*
X102717D01*
X102409Y49025D01*
X102149Y48851D01*
X101975Y48591D01*
X101914Y48283D01*
Y44362D01*
X100295D01*
Y49642D01*
X100202Y49735D01*
X92411D01*
Y50403D01*
X92164D01*
X92086Y50519D01*
X91807Y50706D01*
Y51830D01*
X95115Y55138D01*
X107454D01*
Y44362D01*
D02*
G37*
G54D10*
X101965Y60579D02*
D03*
X112988D02*
D03*
G54D11*
X84555Y37020D02*
D03*
X90055D02*
D03*
X76555Y49925D02*
D03*
X71055D02*
D03*
X99555Y80425D02*
D03*
X105055D02*
D03*
Y72425D02*
D03*
X99555D02*
D03*
X46555Y38925D02*
D03*
X52055D02*
D03*
X46555Y31925D02*
D03*
X52055D02*
D03*
X46555Y48425D02*
D03*
X52055D02*
D03*
X103260Y25984D02*
D03*
X108760D02*
D03*
G54D12*
X81193Y70740D02*
D03*
Y94362D02*
D03*
Y88457D02*
D03*
Y82551D02*
D03*
Y76646D02*
D03*
X73319Y63850D02*
D03*
X67413D02*
D03*
X61508D02*
D03*
X55602D02*
D03*
X49697D02*
D03*
X43791D02*
D03*
X35917Y70740D02*
D03*
Y76646D02*
D03*
Y82551D02*
D03*
Y88457D02*
D03*
Y94362D02*
D03*
G54D13*
X81193Y70740D02*
D03*
Y76646D02*
D03*
Y82551D02*
D03*
Y88457D02*
D03*
Y94362D02*
D03*
X35917Y70740D02*
D03*
Y76646D02*
D03*
Y82551D02*
D03*
Y88457D02*
D03*
G54D14*
X104055Y38244D02*
D03*
G54D15*
X109961Y45921D02*
D03*
X104055D02*
D03*
X98150D02*
D03*
Y32929D02*
D03*
X109961D02*
D03*
G54D16*
X35055Y54260D02*
D03*
X30055D02*
D03*
X25055D02*
D03*
X20055D02*
D03*
Y33591D02*
D03*
X25055D02*
D03*
X30055D02*
D03*
X35055D02*
D03*
G54D17*
X24555Y69925D02*
D03*
Y64425D02*
D03*
X117555Y36925D02*
D03*
Y31425D02*
D03*
X16055Y69925D02*
D03*
Y64425D02*
D03*
X77055Y41925D02*
D03*
Y36425D02*
D03*
G54D18*
X73319Y63850D02*
D03*
X67413D02*
D03*
X61508D02*
D03*
X55602D02*
D03*
X49697D02*
D03*
X43791D02*
D03*
G54D19*
X35917Y94362D02*
D03*
G54D20*
X86799Y56315D02*
D03*
X90402Y47890D02*
D03*
X83197D02*
D03*
G54D21*
X88437Y7772D02*
D03*
Y18795D02*
D03*
G54D22*
X66823Y32457D02*
D03*
X63083Y41709D02*
D03*
X70563D02*
D03*
G54D23*
X67197Y53008D02*
X76646D01*
X77563Y53925D01*
X82055D01*
X73055Y55925D02*
X73327Y56197D01*
X53114Y38925D02*
X67197Y53008D01*
X80055Y36425D02*
Y37884D01*
X67413Y55752D02*
Y63850D01*
X54086Y42425D02*
X67413Y55752D01*
X41555Y42425D02*
X54086D01*
X41630Y45350D02*
X54484D01*
X61587Y52453D01*
Y63772D01*
X52055Y38925D02*
X53114D01*
X55602Y57894D02*
Y63850D01*
X42134Y54925D02*
X59161D01*
X35917Y61142D02*
X42134Y54925D01*
X35917Y61142D02*
Y70740D01*
X41598Y49654D02*
X42827Y48425D01*
X46555D01*
X61508Y63850D02*
X61587Y63772D01*
X63807Y42028D02*
X64205Y42425D01*
X66555D01*
X117555Y38425D02*
Y43925D01*
X42055Y38925D02*
X46555D01*
X42555Y31925D02*
X46555D01*
X37220Y54260D02*
X39055Y52425D01*
X35055Y54260D02*
X37220D01*
X41555Y45425D02*
X41630Y45350D01*
X25055Y28925D02*
Y33591D01*
X24555Y69925D02*
Y74425D01*
X16055Y69925D02*
Y74425D01*
X73055Y55925D02*
Y63587D01*
X35697Y76425D02*
X35917Y76646D01*
X28055Y76425D02*
X35697D01*
X35791Y82425D02*
X35917Y82551D01*
X28055Y82425D02*
X35791D01*
X35886Y88425D02*
X35917Y88457D01*
X28055Y88425D02*
X35886D01*
X43791Y63850D02*
X44055Y63587D01*
X99335Y76646D02*
X99555Y76425D01*
Y80425D01*
Y72425D02*
Y76425D01*
X81193Y76646D02*
X99335D01*
X20055Y33591D02*
X20219Y33755D01*
X52055Y48425D02*
Y52425D01*
X67547Y32776D02*
X82406D01*
X84555Y34925D01*
Y37020D01*
X83197Y41284D02*
Y47890D01*
Y41284D02*
X84555Y39925D01*
Y37020D02*
Y39925D01*
X99555Y52425D02*
X104055D01*
X24555Y64425D02*
X28555D01*
X30055Y62925D01*
Y54260D02*
Y62925D01*
X16555Y53925D02*
Y54425D01*
Y53925D02*
X19721D01*
X16555Y33425D02*
X19890D01*
X77055Y36425D02*
X80055D01*
X35055Y26925D02*
Y33591D01*
X95043Y60579D02*
X95197Y60425D01*
X66956Y49425D02*
X70055D01*
X65453Y47922D02*
X66956Y49425D01*
X65453Y47736D02*
Y47922D01*
X81264Y82480D02*
X92512D01*
X81193Y82551D02*
X81264Y82480D01*
X94713Y88457D02*
X94882Y88287D01*
X81193Y88457D02*
X94713D01*
X81193Y94362D02*
X92055D01*
X92126Y94291D01*
X39055Y22756D02*
X43012Y18799D01*
X39055Y22756D02*
Y52425D01*
X30055Y23193D02*
X39567Y13681D01*
X46752D01*
X47933Y14862D01*
Y18799D01*
X30055Y23193D02*
Y33591D01*
X52854Y10433D02*
Y18799D01*
X55516Y7772D02*
X88437D01*
X52854Y10433D02*
X55516Y7772D01*
X110126Y80425D02*
X110236Y80315D01*
X105055Y80425D02*
X110126D01*
X43791Y63850D02*
X44353Y63288D01*
Y59781D02*
X44488Y59646D01*
X44353Y59781D02*
Y63288D01*
G54D24*
X109961Y44421D02*
Y50911D01*
X111655Y52606D02*
X111972D01*
X25055Y54260D02*
Y58913D01*
X23043Y60925D02*
X25055Y58913D01*
X16055Y60925D02*
X23043D01*
X94533Y56543D02*
X108035D01*
X90402Y52412D02*
X94533Y56543D01*
X90402Y47890D02*
Y52412D01*
X49669Y57823D02*
Y63823D01*
X49697Y63850D01*
X105055Y67925D02*
Y72425D01*
X58055Y26425D02*
X94555D01*
X90402Y37366D02*
Y47890D01*
X90055Y37020D02*
X90402Y37366D01*
X52055Y31925D02*
X52555D01*
X117555Y26425D02*
Y30445D01*
X109965Y31425D02*
X117555D01*
X109961Y31429D02*
X109965Y31425D01*
X76555Y46425D02*
Y49925D01*
Y46425D02*
X77055Y45925D01*
Y42913D02*
Y45925D01*
X101555Y64425D02*
X105055Y67925D01*
X71287Y42028D02*
X76953D01*
X20555Y64425D02*
X24555D01*
X78555D02*
X86799D01*
X101555D01*
X86799Y56315D02*
Y64425D01*
X16055Y60925D02*
Y64425D01*
X99209Y18795D02*
X103150Y22736D01*
X88437Y18795D02*
X99209D01*
X103150Y25874D02*
X103260Y25984D01*
X103150Y22736D02*
Y25874D01*
X92057Y37020D02*
X94291Y34785D01*
Y33369D02*
X94983Y32677D01*
X97898D01*
X94291Y33369D02*
Y34785D01*
X97898Y32677D02*
X98150Y32929D01*
X90055Y37020D02*
X92057D01*
X98150Y27847D02*
Y32929D01*
X100012Y25984D02*
X103260D01*
X98150Y27847D02*
X100012Y25984D01*
X108760D02*
X108858Y26083D01*
X107425Y28598D02*
X108166D01*
X108858Y27907D01*
Y26083D02*
Y27907D01*
X104055Y31969D02*
X107425Y28598D01*
X104055Y31969D02*
Y38244D01*
Y39425D01*
X14278Y59149D02*
X16055Y60925D01*
X6201Y65098D02*
X11319Y59980D01*
X52555Y31925D02*
X58055Y26425D01*
X12697Y25098D02*
X14193Y26594D01*
Y58506D01*
X6201Y25098D02*
X12697D01*
X11122Y30512D02*
X11319Y30709D01*
Y59980D01*
X88433Y18799D02*
X88437Y18795D01*
X84350Y18799D02*
X88433D01*
X110545Y54033D02*
X111972Y52606D01*
X108035Y56543D02*
X110545Y54033D01*
X109961Y50911D02*
X110584Y51534D01*
X111655Y52606D01*
X111972D02*
X112579D01*
X112988Y53016D01*
Y60579D01*
G54D25*
X63205Y43850D02*
D03*
G54D26*
X110201Y52803D02*
D03*
G54D27*
X44157Y62301D02*
D03*
G54D28*
X35398Y85726D02*
D03*
G54D29*
X34856Y31400D02*
D03*
G54D30*
X104047Y50138D02*
D03*
G54D31*
X73340Y58856D02*
D03*
G54D32*
X117484Y44240D02*
D03*
G54D33*
X77524Y36268D02*
D03*
G54D34*
X40534Y64220D02*
D03*
G54D35*
X104045Y41612D02*
D03*
G54D36*
X77461Y18799D02*
D03*
X67618D02*
D03*
X72539D02*
D03*
X57776D02*
D03*
X62697D02*
D03*
X47933D02*
D03*
X52854D02*
D03*
G54D37*
X43012D02*
D03*
G54D38*
X6201Y75098D02*
D03*
Y65098D02*
D03*
Y55098D02*
D03*
Y45098D02*
D03*
Y35098D02*
D03*
G54D39*
Y25098D02*
D03*
G54D40*
X49669Y57823D02*
D03*
X55673D02*
D03*
X41555Y49654D02*
D03*
X14429Y59299D02*
D03*
X59315Y54772D02*
D03*
X94555Y26425D02*
D03*
X117555Y43925D02*
D03*
X41555Y38925D02*
D03*
Y31925D02*
D03*
Y45425D02*
D03*
Y42425D02*
D03*
X25055Y28925D02*
D03*
X20555Y64425D02*
D03*
X24555Y74425D02*
D03*
X28055Y76425D02*
D03*
Y82425D02*
D03*
Y88425D02*
D03*
X16055Y74425D02*
D03*
X52055Y52425D02*
D03*
X73055Y55925D02*
D03*
X66555Y42425D02*
D03*
X82055Y53925D02*
D03*
X117555Y26425D02*
D03*
X99555Y52425D02*
D03*
X80055Y36425D02*
D03*
X78555Y64425D02*
D03*
X16555Y33425D02*
D03*
Y53925D02*
D03*
X35055Y26925D02*
D03*
X95043Y60579D02*
D03*
X65453Y47736D02*
D03*
X57874Y26476D02*
D03*
X92512Y82480D02*
D03*
X94882Y88287D02*
D03*
X92126Y94291D02*
D03*
X87500Y82480D02*
D03*
X11122Y30512D02*
D03*
X84350Y18799D02*
D03*
X110236Y80315D02*
D03*
X104035Y39370D02*
D03*
X44488Y59646D02*
D03*
M02*
