%FSLAX25Y25*%
%MOIN*%
G70*
G01*
G75*
G04 Layer_Color=2752767*
%ADD10R,0.04134X0.02362*%
%ADD11R,0.03937X0.03150*%
%ADD12R,0.00394X0.00394*%
%ADD13O,0.07874X0.03937*%
%ADD14C,0.06000*%
%ADD15R,0.02677X0.05906*%
G04:AMPARAMS|DCode=16|XSize=65.35mil|YSize=23.23mil|CornerRadius=2.9mil|HoleSize=0mil|Usage=FLASHONLY|Rotation=270.000|XOffset=0mil|YOffset=0mil|HoleType=Round|Shape=RoundedRectangle|*
%AMROUNDEDRECTD16*
21,1,0.06535,0.01742,0,0,270.0*
21,1,0.05955,0.02323,0,0,270.0*
1,1,0.00581,-0.00871,-0.02977*
1,1,0.00581,-0.00871,0.02977*
1,1,0.00581,0.00871,0.02977*
1,1,0.00581,0.00871,-0.02977*
%
%ADD16ROUNDEDRECTD16*%
%ADD17R,0.03150X0.03937*%
%ADD18O,0.03937X0.07874*%
%ADD19R,0.07874X0.03937*%
G04:AMPARAMS|DCode=20|XSize=42.91mil|YSize=24.02mil|CornerRadius=3mil|HoleSize=0mil|Usage=FLASHONLY|Rotation=90.000|XOffset=0mil|YOffset=0mil|HoleType=Round|Shape=RoundedRectangle|*
%AMROUNDEDRECTD20*
21,1,0.04291,0.01801,0,0,90.0*
21,1,0.03691,0.02402,0,0,90.0*
1,1,0.00600,0.00901,0.01846*
1,1,0.00600,0.00901,-0.01846*
1,1,0.00600,-0.00901,-0.01846*
1,1,0.00600,-0.00901,0.01846*
%
%ADD20ROUNDEDRECTD20*%
%ADD21R,0.02362X0.04134*%
%ADD22R,0.02362X0.05709*%
%ADD23C,0.01000*%
%ADD24C,0.01181*%
%ADD25R,0.02000X0.02850*%
%ADD26R,0.01575X0.03347*%
%ADD27R,0.03937X0.10925*%
%ADD28R,0.08858X0.22736*%
%ADD29R,0.05610X0.12492*%
%ADD30R,0.02661X0.06709*%
%ADD31R,0.04035X0.08366*%
%ADD32R,0.04921X0.05512*%
%ADD33R,0.07480X0.04331*%
%ADD34R,0.04169X0.07087*%
%ADD35R,0.07501X0.26028*%
%ADD36C,0.03937*%
%ADD37R,0.03937X0.03937*%
%ADD38C,0.05906*%
%ADD39R,0.05906X0.05906*%
%ADD40C,0.01969*%
%ADD41R,0.03625X0.05150*%
%ADD42R,0.06594X0.06693*%
%ADD43C,0.00787*%
%ADD44C,0.00984*%
%ADD45C,0.00500*%
%ADD46C,0.00800*%
%ADD47R,0.04934X0.03162*%
%ADD48R,0.04737X0.03950*%
%ADD49O,0.08674X0.04737*%
%ADD50C,0.06800*%
%ADD51R,0.03477X0.06706*%
G04:AMPARAMS|DCode=52|XSize=73.35mil|YSize=31.23mil|CornerRadius=6.9mil|HoleSize=0mil|Usage=FLASHONLY|Rotation=270.000|XOffset=0mil|YOffset=0mil|HoleType=Round|Shape=RoundedRectangle|*
%AMROUNDEDRECTD52*
21,1,0.07335,0.01742,0,0,270.0*
21,1,0.05955,0.03123,0,0,270.0*
1,1,0.01381,-0.00871,-0.02977*
1,1,0.01381,-0.00871,0.02977*
1,1,0.01381,0.00871,0.02977*
1,1,0.01381,0.00871,-0.02977*
%
%ADD52ROUNDEDRECTD52*%
%ADD53R,0.03950X0.04737*%
%ADD54O,0.04737X0.08674*%
%ADD55R,0.08674X0.04737*%
G04:AMPARAMS|DCode=56|XSize=50.91mil|YSize=32.02mil|CornerRadius=7mil|HoleSize=0mil|Usage=FLASHONLY|Rotation=90.000|XOffset=0mil|YOffset=0mil|HoleType=Round|Shape=RoundedRectangle|*
%AMROUNDEDRECTD56*
21,1,0.05091,0.01801,0,0,90.0*
21,1,0.03691,0.03202,0,0,90.0*
1,1,0.01400,0.00901,0.01846*
1,1,0.01400,0.00901,-0.01846*
1,1,0.01400,-0.00901,-0.01846*
1,1,0.01400,-0.00901,0.01846*
%
%ADD56ROUNDEDRECTD56*%
%ADD57R,0.03162X0.04934*%
%ADD58R,0.03162X0.06509*%
%ADD59C,0.04737*%
%ADD60R,0.04737X0.04737*%
%ADD61C,0.06706*%
%ADD62R,0.06706X0.06706*%
%ADD63C,0.02769*%
%ADD64C,0.00667*%
G54D45*
X75461Y16799D02*
Y20799D01*
X79461D01*
Y16799D01*
X75461D01*
X65618D02*
Y20799D01*
X69618D01*
Y16799D01*
X65618D01*
X70539D02*
Y20799D01*
X74539D01*
Y16799D01*
X70539D01*
X55776D02*
Y20799D01*
X59776D01*
Y16799D01*
X55776D01*
X60697D02*
Y20799D01*
X64697D01*
Y16799D01*
X60697D01*
X41012D02*
Y20799D01*
X45012D01*
Y16799D01*
X41012D01*
X45933D02*
Y20799D01*
X49933D01*
Y16799D01*
X45933D01*
X50854D02*
Y20799D01*
X54854D01*
Y16799D01*
X50854D01*
X49669Y55823D02*
X47669Y59823D01*
X51669D01*
X49669Y55823D01*
X55673D02*
X53673Y59823D01*
X57673D01*
X55673Y55823D01*
X41555Y47654D02*
X39555Y51653D01*
X43555D01*
X41555Y47654D01*
X14429Y57299D02*
X12429Y61299D01*
X16429D01*
X14429Y57299D01*
X59315Y52772D02*
X57315Y56772D01*
X61315D01*
X59315Y52772D01*
X94555Y24425D02*
X92555Y28425D01*
X96555D01*
X94555Y24425D01*
X117555Y41925D02*
X115555Y45925D01*
X119555D01*
X117555Y41925D01*
X41555Y36925D02*
X39555Y40925D01*
X43555D01*
X41555Y36925D01*
Y29925D02*
X39555Y33925D01*
X43555D01*
X41555Y29925D01*
Y43425D02*
X39555Y47425D01*
X43555D01*
X41555Y43425D01*
Y40425D02*
X39555Y44425D01*
X43555D01*
X41555Y40425D01*
X25055Y26925D02*
X23055Y30925D01*
X27055D01*
X25055Y26925D01*
X20555Y62425D02*
X18555Y66425D01*
X22555D01*
X20555Y62425D01*
X24555Y72425D02*
X22555Y76425D01*
X26555D01*
X24555Y72425D01*
X28055Y74425D02*
X26055Y78425D01*
X30055D01*
X28055Y74425D01*
Y80425D02*
X26055Y84425D01*
X30055D01*
X28055Y80425D01*
Y86425D02*
X26055Y90425D01*
X30055D01*
X28055Y86425D01*
X16055Y72425D02*
X14055Y76425D01*
X18055D01*
X16055Y72425D01*
X52055Y50425D02*
X50055Y54425D01*
X54055D01*
X52055Y50425D01*
X73055Y53925D02*
X71055Y57925D01*
X75055D01*
X73055Y53925D01*
X66555Y40425D02*
X64555Y44425D01*
X68555D01*
X66555Y40425D01*
X82055Y51925D02*
X80055Y55925D01*
X84055D01*
X82055Y51925D01*
X117555Y24425D02*
X115555Y28425D01*
X119555D01*
X117555Y24425D01*
X99555Y50425D02*
X97555Y54425D01*
X101555D01*
X99555Y50425D01*
X80055Y34425D02*
X78055Y38425D01*
X82055D01*
X80055Y34425D01*
X78555Y62425D02*
X76555Y66425D01*
X80555D01*
X78555Y62425D01*
X16555Y31425D02*
X14555Y35425D01*
X18555D01*
X16555Y31425D01*
Y51925D02*
X14555Y55925D01*
X18555D01*
X16555Y51925D01*
X35055Y24925D02*
X33055Y28925D01*
X37055D01*
X35055Y24925D01*
X95043Y58579D02*
X93043Y62579D01*
X97043D01*
X95043Y58579D01*
X65453Y45736D02*
X63453Y49736D01*
X67453D01*
X65453Y45736D01*
X57874Y24476D02*
X55874Y28476D01*
X59874D01*
X57874Y24476D01*
X92512Y80480D02*
X90512Y84480D01*
X94512D01*
X92512Y80480D01*
X94882Y86287D02*
X92882Y90287D01*
X96882D01*
X94882Y86287D01*
X92126Y92291D02*
X90126Y96291D01*
X94126D01*
X92126Y92291D01*
X87500Y80480D02*
X85500Y84480D01*
X89500D01*
X87500Y80480D01*
X11122Y28512D02*
X9122Y32512D01*
X13122D01*
X11122Y28512D01*
X84350Y16799D02*
X82350Y20799D01*
X86350D01*
X84350Y16799D01*
X110236Y78315D02*
X108236Y82315D01*
X112236D01*
X110236Y78315D01*
X104035Y37370D02*
X102035Y41370D01*
X106035D01*
X104035Y37370D01*
X44488Y57646D02*
X42488Y61646D01*
X46488D01*
X44488Y57646D01*
G54D64*
X8201Y75098D02*
X7972Y76028D01*
X7337Y76744D01*
X6442Y77084D01*
X5492Y76968D01*
X4704Y76425D01*
X4259Y75577D01*
Y74620D01*
X4704Y73772D01*
X5492Y73228D01*
X6442Y73113D01*
X7337Y73453D01*
X7972Y74169D01*
X8201Y75098D01*
Y65098D02*
X7972Y66028D01*
X7337Y66744D01*
X6442Y67084D01*
X5492Y66969D01*
X4704Y66425D01*
X4259Y65577D01*
Y64620D01*
X4704Y63772D01*
X5492Y63228D01*
X6442Y63113D01*
X7337Y63453D01*
X7972Y64169D01*
X8201Y65098D01*
Y55098D02*
X7972Y56028D01*
X7337Y56744D01*
X6442Y57084D01*
X5492Y56968D01*
X4704Y56425D01*
X4259Y55577D01*
Y54620D01*
X4704Y53772D01*
X5492Y53228D01*
X6442Y53113D01*
X7337Y53452D01*
X7972Y54169D01*
X8201Y55098D01*
Y45098D02*
X7972Y46028D01*
X7337Y46744D01*
X6442Y47084D01*
X5492Y46968D01*
X4704Y46425D01*
X4259Y45577D01*
Y44620D01*
X4704Y43772D01*
X5492Y43228D01*
X6442Y43113D01*
X7337Y43453D01*
X7972Y44169D01*
X8201Y45098D01*
Y35098D02*
X7972Y36028D01*
X7337Y36744D01*
X6442Y37084D01*
X5492Y36968D01*
X4704Y36425D01*
X4259Y35577D01*
Y34620D01*
X4704Y33772D01*
X5492Y33228D01*
X6442Y33113D01*
X7337Y33452D01*
X7972Y34169D01*
X8201Y35098D01*
Y25098D02*
X7972Y26028D01*
X7337Y26744D01*
X6442Y27084D01*
X5492Y26969D01*
X4704Y26425D01*
X4259Y25577D01*
Y24620D01*
X4704Y23772D01*
X5492Y23228D01*
X6442Y23113D01*
X7337Y23452D01*
X7972Y24169D01*
X8201Y25098D01*
M02*
